<mxfile host="app.diagrams.net" modified="2023-07-30T21:26:30.782Z" agent="Mozilla/5.0 (Macintosh; Intel Mac OS X 10.15; rv:109.0) Gecko/20100101 Firefox/115.0" etag="d74YkumE9nmMkI3ufS54" version="21.5.0" type="github">
  <diagram name="Page-1" id="5br7BQrC1HLW1S9b53a2">
    <mxGraphModel dx="1207" dy="807" grid="1" gridSize="10" guides="1" tooltips="1" connect="1" arrows="1" fold="1" page="1" pageScale="1" pageWidth="850" pageHeight="1100" math="0" shadow="0">
      <root>
        <mxCell id="0" />
        <mxCell id="1" parent="0" />
        <mxCell id="auO2MSHDAda2A5F5yBvW-53" value="UAV software processes" style="text;html=1;strokeColor=none;fillColor=none;align=center;verticalAlign=middle;whiteSpace=wrap;rounded=0;fontSize=30;" vertex="1" parent="1">
          <mxGeometry x="249" y="90" width="352" height="30" as="geometry" />
        </mxCell>
        <mxCell id="auO2MSHDAda2A5F5yBvW-58" style="edgeStyle=orthogonalEdgeStyle;rounded=0;orthogonalLoop=1;jettySize=auto;html=1;exitX=0.5;exitY=0;exitDx=0;exitDy=0;" edge="1" parent="1" source="auO2MSHDAda2A5F5yBvW-55">
          <mxGeometry relative="1" as="geometry">
            <mxPoint x="229.5" y="180" as="targetPoint" />
          </mxGeometry>
        </mxCell>
        <mxCell id="auO2MSHDAda2A5F5yBvW-55" value="TX Queue" style="rounded=1;whiteSpace=wrap;html=1;" vertex="1" parent="1">
          <mxGeometry x="170" y="270" width="120" height="60" as="geometry" />
        </mxCell>
        <mxCell id="auO2MSHDAda2A5F5yBvW-62" style="edgeStyle=orthogonalEdgeStyle;rounded=0;orthogonalLoop=1;jettySize=auto;html=1;exitX=0.5;exitY=1;exitDx=0;exitDy=0;entryX=0.5;entryY=0;entryDx=0;entryDy=0;" edge="1" parent="1" source="auO2MSHDAda2A5F5yBvW-56" target="auO2MSHDAda2A5F5yBvW-61">
          <mxGeometry relative="1" as="geometry" />
        </mxCell>
        <mxCell id="auO2MSHDAda2A5F5yBvW-63" value="&lt;div&gt;Pakcet incoming&lt;/div&gt;" style="edgeLabel;html=1;align=center;verticalAlign=middle;resizable=0;points=[];" vertex="1" connectable="0" parent="auO2MSHDAda2A5F5yBvW-62">
          <mxGeometry x="-0.16" y="4" relative="1" as="geometry">
            <mxPoint y="-1" as="offset" />
          </mxGeometry>
        </mxCell>
        <mxCell id="auO2MSHDAda2A5F5yBvW-56" value="RX Queue" style="rounded=1;whiteSpace=wrap;html=1;" vertex="1" parent="1">
          <mxGeometry x="560" y="270" width="120" height="60" as="geometry" />
        </mxCell>
        <mxCell id="auO2MSHDAda2A5F5yBvW-65" style="edgeStyle=orthogonalEdgeStyle;rounded=0;orthogonalLoop=1;jettySize=auto;html=1;exitX=0.5;exitY=1;exitDx=0;exitDy=0;entryX=1;entryY=0.5;entryDx=0;entryDy=0;" edge="1" parent="1" source="auO2MSHDAda2A5F5yBvW-61" target="auO2MSHDAda2A5F5yBvW-64">
          <mxGeometry relative="1" as="geometry" />
        </mxCell>
        <mxCell id="auO2MSHDAda2A5F5yBvW-66" value="Puts packet inside ARP registy&#39;s rx_buffer" style="edgeLabel;html=1;align=center;verticalAlign=middle;resizable=0;points=[];" vertex="1" connectable="0" parent="auO2MSHDAda2A5F5yBvW-65">
          <mxGeometry x="-0.0659" y="3" relative="1" as="geometry">
            <mxPoint x="37" y="-1" as="offset" />
          </mxGeometry>
        </mxCell>
        <mxCell id="auO2MSHDAda2A5F5yBvW-69" style="edgeStyle=orthogonalEdgeStyle;rounded=0;orthogonalLoop=1;jettySize=auto;html=1;exitX=1;exitY=0.75;exitDx=0;exitDy=0;entryX=0;entryY=0.75;entryDx=0;entryDy=0;" edge="1" parent="1" source="auO2MSHDAda2A5F5yBvW-61" target="auO2MSHDAda2A5F5yBvW-68">
          <mxGeometry relative="1" as="geometry" />
        </mxCell>
        <mxCell id="auO2MSHDAda2A5F5yBvW-61" value="Packet Parser" style="rounded=1;whiteSpace=wrap;html=1;" vertex="1" parent="1">
          <mxGeometry x="560" y="430" width="120" height="60" as="geometry" />
        </mxCell>
        <mxCell id="auO2MSHDAda2A5F5yBvW-75" style="edgeStyle=orthogonalEdgeStyle;rounded=0;orthogonalLoop=1;jettySize=auto;html=1;exitX=1;exitY=1;exitDx=0;exitDy=0;entryX=0.5;entryY=0;entryDx=0;entryDy=0;" edge="1" parent="1" source="auO2MSHDAda2A5F5yBvW-64" target="auO2MSHDAda2A5F5yBvW-74">
          <mxGeometry relative="1" as="geometry" />
        </mxCell>
        <mxCell id="auO2MSHDAda2A5F5yBvW-77" value="If all packets received process it" style="edgeLabel;html=1;align=center;verticalAlign=middle;resizable=0;points=[];" vertex="1" connectable="0" parent="auO2MSHDAda2A5F5yBvW-75">
          <mxGeometry x="0.17" relative="1" as="geometry">
            <mxPoint x="-1" as="offset" />
          </mxGeometry>
        </mxCell>
        <mxCell id="auO2MSHDAda2A5F5yBvW-95" style="edgeStyle=orthogonalEdgeStyle;rounded=0;orthogonalLoop=1;jettySize=auto;html=1;exitX=0;exitY=0.5;exitDx=0;exitDy=0;" edge="1" parent="1" source="auO2MSHDAda2A5F5yBvW-64" target="auO2MSHDAda2A5F5yBvW-96">
          <mxGeometry relative="1" as="geometry">
            <mxPoint x="290" y="615" as="targetPoint" />
          </mxGeometry>
        </mxCell>
        <mxCell id="auO2MSHDAda2A5F5yBvW-97" value="Message ready to send" style="edgeLabel;html=1;align=center;verticalAlign=middle;resizable=0;points=[];" vertex="1" connectable="0" parent="auO2MSHDAda2A5F5yBvW-95">
          <mxGeometry x="0.06" y="2" relative="1" as="geometry">
            <mxPoint as="offset" />
          </mxGeometry>
        </mxCell>
        <mxCell id="auO2MSHDAda2A5F5yBvW-64" value="Arp Table" style="ellipse;whiteSpace=wrap;html=1;aspect=fixed;" vertex="1" parent="1">
          <mxGeometry x="390" y="540" width="150" height="150" as="geometry" />
        </mxCell>
        <mxCell id="auO2MSHDAda2A5F5yBvW-67" value="" style="endArrow=classic;html=1;rounded=0;entryX=0.5;entryY=0;entryDx=0;entryDy=0;" edge="1" parent="1" target="auO2MSHDAda2A5F5yBvW-56">
          <mxGeometry width="50" height="50" relative="1" as="geometry">
            <mxPoint x="620" y="180" as="sourcePoint" />
            <mxPoint x="651" y="140" as="targetPoint" />
          </mxGeometry>
        </mxCell>
        <mxCell id="auO2MSHDAda2A5F5yBvW-70" style="edgeStyle=orthogonalEdgeStyle;rounded=0;orthogonalLoop=1;jettySize=auto;html=1;exitX=0;exitY=0.25;exitDx=0;exitDy=0;entryX=1;entryY=0.25;entryDx=0;entryDy=0;" edge="1" parent="1" source="auO2MSHDAda2A5F5yBvW-68" target="auO2MSHDAda2A5F5yBvW-61">
          <mxGeometry relative="1" as="geometry" />
        </mxCell>
        <mxCell id="auO2MSHDAda2A5F5yBvW-68" value="&lt;div&gt;Checking blacklist&lt;/div&gt;" style="rounded=1;whiteSpace=wrap;html=1;" vertex="1" parent="1">
          <mxGeometry x="750" y="430" width="120" height="60" as="geometry" />
        </mxCell>
        <mxCell id="auO2MSHDAda2A5F5yBvW-82" style="edgeStyle=orthogonalEdgeStyle;rounded=0;orthogonalLoop=1;jettySize=auto;html=1;exitX=0;exitY=0.5;exitDx=0;exitDy=0;" edge="1" parent="1" source="auO2MSHDAda2A5F5yBvW-71" target="auO2MSHDAda2A5F5yBvW-64">
          <mxGeometry relative="1" as="geometry" />
        </mxCell>
        <mxCell id="auO2MSHDAda2A5F5yBvW-83" value="&lt;div&gt;If the decryption error occurs at one &lt;br&gt;&lt;/div&gt;&lt;div&gt;or more packet request packet resend&lt;/div&gt;&lt;div&gt;if all are faulty destroy message and &lt;br&gt;&lt;/div&gt;&lt;div&gt;send back a response&lt;br&gt;&lt;/div&gt;" style="edgeLabel;html=1;align=center;verticalAlign=middle;resizable=0;points=[];" vertex="1" connectable="0" parent="auO2MSHDAda2A5F5yBvW-82">
          <mxGeometry x="-0.2358" y="3" relative="1" as="geometry">
            <mxPoint x="-2" y="-27" as="offset" />
          </mxGeometry>
        </mxCell>
        <mxCell id="auO2MSHDAda2A5F5yBvW-84" style="edgeStyle=orthogonalEdgeStyle;rounded=0;orthogonalLoop=1;jettySize=auto;html=1;exitX=0.5;exitY=1;exitDx=0;exitDy=0;entryX=0.5;entryY=0;entryDx=0;entryDy=0;" edge="1" parent="1" source="auO2MSHDAda2A5F5yBvW-71" target="auO2MSHDAda2A5F5yBvW-81">
          <mxGeometry relative="1" as="geometry">
            <mxPoint x="619.5" y="1000" as="targetPoint" />
          </mxGeometry>
        </mxCell>
        <mxCell id="auO2MSHDAda2A5F5yBvW-85" value="&lt;div&gt;Every packet decrypted successfully&lt;/div&gt;" style="edgeLabel;html=1;align=center;verticalAlign=middle;resizable=0;points=[];" vertex="1" connectable="0" parent="auO2MSHDAda2A5F5yBvW-84">
          <mxGeometry x="-0.08" relative="1" as="geometry">
            <mxPoint as="offset" />
          </mxGeometry>
        </mxCell>
        <mxCell id="auO2MSHDAda2A5F5yBvW-71" value="Packet decryptor" style="rounded=1;whiteSpace=wrap;html=1;" vertex="1" parent="1">
          <mxGeometry x="560" y="900" width="120" height="60" as="geometry" />
        </mxCell>
        <mxCell id="auO2MSHDAda2A5F5yBvW-76" style="edgeStyle=orthogonalEdgeStyle;rounded=0;orthogonalLoop=1;jettySize=auto;html=1;exitX=0.5;exitY=1;exitDx=0;exitDy=0;entryX=0.5;entryY=0;entryDx=0;entryDy=0;" edge="1" parent="1" source="auO2MSHDAda2A5F5yBvW-74" target="auO2MSHDAda2A5F5yBvW-71">
          <mxGeometry relative="1" as="geometry" />
        </mxCell>
        <mxCell id="auO2MSHDAda2A5F5yBvW-78" value="All packets are fine" style="edgeLabel;html=1;align=center;verticalAlign=middle;resizable=0;points=[];" vertex="1" connectable="0" parent="auO2MSHDAda2A5F5yBvW-76">
          <mxGeometry x="-0.0438" y="2" relative="1" as="geometry">
            <mxPoint y="-1" as="offset" />
          </mxGeometry>
        </mxCell>
        <mxCell id="auO2MSHDAda2A5F5yBvW-79" style="edgeStyle=orthogonalEdgeStyle;rounded=0;orthogonalLoop=1;jettySize=auto;html=1;exitX=0;exitY=0.5;exitDx=0;exitDy=0;entryX=0.5;entryY=1;entryDx=0;entryDy=0;" edge="1" parent="1" source="auO2MSHDAda2A5F5yBvW-74" target="auO2MSHDAda2A5F5yBvW-64">
          <mxGeometry relative="1" as="geometry">
            <mxPoint x="460" y="700" as="targetPoint" />
          </mxGeometry>
        </mxCell>
        <mxCell id="auO2MSHDAda2A5F5yBvW-80" value="&lt;div&gt;If pacekt error occurswe put the &lt;br&gt;&lt;/div&gt;&lt;div&gt;number of fulty packets into&lt;/div&gt;&lt;div&gt;&amp;nbsp;the message&lt;/div&gt;&lt;div&gt;&amp;nbsp;tx buffer&lt;br&gt;&lt;/div&gt;" style="edgeLabel;html=1;align=center;verticalAlign=middle;resizable=0;points=[];" vertex="1" connectable="0" parent="auO2MSHDAda2A5F5yBvW-79">
          <mxGeometry x="0.3191" y="-3" relative="1" as="geometry">
            <mxPoint x="-3" y="-16" as="offset" />
          </mxGeometry>
        </mxCell>
        <mxCell id="auO2MSHDAda2A5F5yBvW-74" value="Checking packets" style="rounded=1;whiteSpace=wrap;html=1;" vertex="1" parent="1">
          <mxGeometry x="560" y="760" width="120" height="60" as="geometry" />
        </mxCell>
        <mxCell id="auO2MSHDAda2A5F5yBvW-88" style="edgeStyle=orthogonalEdgeStyle;rounded=0;orthogonalLoop=1;jettySize=auto;html=1;exitX=0.5;exitY=1;exitDx=0;exitDy=0;entryX=0.5;entryY=0;entryDx=0;entryDy=0;" edge="1" parent="1" source="auO2MSHDAda2A5F5yBvW-81" target="auO2MSHDAda2A5F5yBvW-87">
          <mxGeometry relative="1" as="geometry" />
        </mxCell>
        <mxCell id="auO2MSHDAda2A5F5yBvW-81" value="Construct message" style="rounded=1;whiteSpace=wrap;html=1;" vertex="1" parent="1">
          <mxGeometry x="560" y="1030" width="120" height="60" as="geometry" />
        </mxCell>
        <mxCell id="auO2MSHDAda2A5F5yBvW-89" style="edgeStyle=orthogonalEdgeStyle;rounded=0;orthogonalLoop=1;jettySize=auto;html=1;exitX=0;exitY=0.5;exitDx=0;exitDy=0;entryX=0;entryY=1;entryDx=0;entryDy=0;" edge="1" parent="1" source="auO2MSHDAda2A5F5yBvW-87" target="auO2MSHDAda2A5F5yBvW-64">
          <mxGeometry relative="1" as="geometry" />
        </mxCell>
        <mxCell id="auO2MSHDAda2A5F5yBvW-90" value="Put response into tx buffer&amp;nbsp; (ERR/Success)" style="edgeLabel;html=1;align=center;verticalAlign=middle;resizable=0;points=[];" vertex="1" connectable="0" parent="auO2MSHDAda2A5F5yBvW-89">
          <mxGeometry x="-0.1538" y="-1" relative="1" as="geometry">
            <mxPoint as="offset" />
          </mxGeometry>
        </mxCell>
        <mxCell id="auO2MSHDAda2A5F5yBvW-102" style="edgeStyle=orthogonalEdgeStyle;rounded=0;orthogonalLoop=1;jettySize=auto;html=1;exitX=0.5;exitY=1;exitDx=0;exitDy=0;entryX=0.5;entryY=0;entryDx=0;entryDy=0;" edge="1" parent="1" source="auO2MSHDAda2A5F5yBvW-87" target="auO2MSHDAda2A5F5yBvW-92">
          <mxGeometry relative="1" as="geometry" />
        </mxCell>
        <mxCell id="auO2MSHDAda2A5F5yBvW-87" value="Message dispatcher" style="rounded=1;whiteSpace=wrap;html=1;" vertex="1" parent="1">
          <mxGeometry x="560" y="1140" width="120" height="60" as="geometry" />
        </mxCell>
        <mxCell id="auO2MSHDAda2A5F5yBvW-92" value="Process message" style="rounded=1;whiteSpace=wrap;html=1;" vertex="1" parent="1">
          <mxGeometry x="560" y="1250" width="120" height="60" as="geometry" />
        </mxCell>
        <mxCell id="auO2MSHDAda2A5F5yBvW-98" style="edgeStyle=orthogonalEdgeStyle;rounded=0;orthogonalLoop=1;jettySize=auto;html=1;exitX=0.5;exitY=0;exitDx=0;exitDy=0;entryX=0.5;entryY=1;entryDx=0;entryDy=0;" edge="1" parent="1" source="auO2MSHDAda2A5F5yBvW-96" target="auO2MSHDAda2A5F5yBvW-99">
          <mxGeometry relative="1" as="geometry">
            <mxPoint x="150" y="500" as="targetPoint" />
            <Array as="points">
              <mxPoint x="150" y="543" />
              <mxPoint x="151" y="543" />
            </Array>
          </mxGeometry>
        </mxCell>
        <mxCell id="auO2MSHDAda2A5F5yBvW-96" value="&lt;div&gt;Message slicer&lt;/div&gt;" style="rounded=1;whiteSpace=wrap;html=1;" vertex="1" parent="1">
          <mxGeometry x="90" y="585" width="120" height="60" as="geometry" />
        </mxCell>
        <mxCell id="auO2MSHDAda2A5F5yBvW-101" style="edgeStyle=orthogonalEdgeStyle;rounded=0;orthogonalLoop=1;jettySize=auto;html=1;exitX=0.5;exitY=0;exitDx=0;exitDy=0;entryX=0.5;entryY=1;entryDx=0;entryDy=0;" edge="1" parent="1" source="auO2MSHDAda2A5F5yBvW-99" target="auO2MSHDAda2A5F5yBvW-55">
          <mxGeometry relative="1" as="geometry" />
        </mxCell>
        <mxCell id="auO2MSHDAda2A5F5yBvW-99" value="Packet encryptor" style="rounded=1;whiteSpace=wrap;html=1;" vertex="1" parent="1">
          <mxGeometry x="90" y="430" width="120" height="60" as="geometry" />
        </mxCell>
      </root>
    </mxGraphModel>
  </diagram>
</mxfile>
